<svg width="1440" height="1024" viewBox="0 0 1440 1024" fill="none" xmlns="http://www.w3.org/2000/svg">
<g clip-path="url(#clip0_131_34)">
<rect width="1440" height="1024" fill="#F2EFF6"/>
<path fill-rule="evenodd" clip-rule="evenodd" d="M-70.6862 -2.06575C-59.7574 -45.4501 -81.0194 -97.4808 -55.8545 -130.75C-29.2386 -165.937 15.5636 -176.33 49.4296 -160.863C79.9583 -146.921 85.3529 -97.9275 98.6144 -60.2054C108.229 -32.8582 124.421 -4.33506 114.699 24.7936C105.534 52.2547 74.1492 48.5196 55.9442 67.6463C35.9071 88.6979 29.8158 127.039 5.98202 139.015C-38.7351 161.485 -103.409 208.316 -129.276 160.716C-155.291 112.846 -85.4758 56.6458 -70.6862 -2.06575Z" fill="#B370B0"/>
<path fill-rule="evenodd" clip-rule="evenodd" d="M535.337 1089.12C550.665 1130.59 394.733 1162.37 336.913 1197.94C279.848 1233.05 304.546 1279.15 220.948 1282.53C141.627 1285.73 96.833 1247.92 36.7944 1225.5C-26.0712 1202.03 -113.269 1190.35 -132.754 1150.47C-154.934 1105.08 -153.597 976.423 -81.064 940.472C-11.456 905.97 106.039 977.498 195.5 979.5C260.293 980.95 481.437 977.971 522.936 1042.97C588.755 1062.36 520.739 1049.62 535.337 1089.12Z" fill="#B370B0"/>
<rect x="101" y="128" width="1238" height="750" rx="30" fill="white"/>
</g>
<defs>
<clipPath id="clip0_131_34">
<rect width="1440" height="1024" fill="white"/>
</clipPath>
</defs>
</svg>
