<svg width="27" height="28" viewBox="0 0 27 28" fill="none" xmlns="http://www.w3.org/2000/svg">
<g clip-path="url(#clip0_1_167)">
<path d="M26.9872 14.262C26.9872 13.1149 26.8954 12.2778 26.6966 11.4097H13.769V16.5873H21.3572C21.2043 17.874 20.3781 19.8118 18.5422 21.1139L18.5165 21.2873L22.6039 24.4958L22.8871 24.5245C25.4879 22.0906 26.9872 18.5096 26.9872 14.262Z" fill="#4285F4"/>
<path d="M13.769 27.9039C17.4866 27.9039 20.6075 26.6637 22.8871 24.5245L18.5422 21.1139C17.3796 21.9356 15.819 22.5091 13.769 22.5091C10.1279 22.5091 7.03761 20.0754 5.93598 16.7114L5.77451 16.7253L1.52433 20.0583L1.46875 20.2148C3.73295 24.7724 8.38381 27.9039 13.769 27.9039Z" fill="#34A853"/>
<path d="M5.93589 16.7113C5.64522 15.8432 5.47699 14.913 5.47699 13.9519C5.47699 12.9907 5.64522 12.0606 5.92059 11.1925L5.91289 11.0076L1.60945 7.62109L1.46865 7.68896C0.535465 9.58024 0 11.7041 0 13.9519C0 16.1997 0.535465 18.3234 1.46865 20.2147L5.93589 16.7113Z" fill="#FBBC05"/>
<path d="M13.769 5.3947C16.3545 5.3947 18.0985 6.52635 19.093 7.47205L22.9789 3.6275C20.5923 1.37969 17.4866 0 13.769 0C8.38381 0 3.73295 3.1314 1.46875 7.68899L5.92069 11.1925C7.03761 7.82857 10.1279 5.3947 13.769 5.3947Z" fill="#EB4335"/>
</g>
<defs>
<clipPath id="clip0_1_167">
<rect width="27" height="28" fill="white"/>
</clipPath>
</defs>
</svg>
