<svg width="71" height="72" viewBox="0 0 71 72" fill="none" xmlns="http://www.w3.org/2000/svg">
<path d="M35.3438 0C28.3534 0 21.5201 2.0967 15.7078 6.02496C9.89558 9.95322 5.36548 15.5366 2.6904 22.0691C0.0153139 28.6015 -0.68461 35.7897 0.679136 42.7245C2.04288 49.6593 5.40905 56.0293 10.352 61.0291C15.2949 66.0288 21.5925 69.4337 28.4485 70.8131C35.3046 72.1925 42.411 71.4845 48.8692 68.7787C55.3275 66.0729 60.8474 61.4907 64.731 55.6116C68.6146 49.7326 70.6875 42.8207 70.6875 35.75C70.6785 26.2713 66.9519 17.1834 60.3256 10.481C53.6993 3.77853 44.7147 0.00910101 35.3438 0ZM48.9375 38.5H38.0625V49.5C38.0625 50.2293 37.7761 50.9288 37.2662 51.4445C36.7563 51.9603 36.0648 52.25 35.3438 52.25C34.6227 52.25 33.9312 51.9603 33.4213 51.4445C32.9115 50.9288 32.625 50.2293 32.625 49.5V38.5H21.75C21.029 38.5 20.3374 38.2103 19.8276 37.6945C19.3177 37.1788 19.0313 36.4793 19.0313 35.75C19.0313 35.0207 19.3177 34.3212 19.8276 33.8055C20.3374 33.2897 21.029 33 21.75 33H32.625V22C32.625 21.2707 32.9115 20.5712 33.4213 20.0555C33.9312 19.5397 34.6227 19.25 35.3438 19.25C36.0648 19.25 36.7563 19.5397 37.2662 20.0555C37.7761 20.5712 38.0625 21.2707 38.0625 22V33H48.9375C49.6586 33 50.3501 33.2897 50.86 33.8055C51.3698 34.3212 51.6563 35.0207 51.6563 35.75C51.6563 36.4793 51.3698 37.1788 50.86 37.6945C50.3501 38.2103 49.6586 38.5 48.9375 38.5Z" fill="#B370B0"/>
</svg>
